<?xml version="1.0" standalone="no"?>
<!DOCTYPE svg PUBLIC "-//W3C//DTD SVG 20010904//EN"
 "http://www.w3.org/TR/2001/REC-SVG-20010904/DTD/svg10.dtd">
<svg version="1.0" xmlns="http://www.w3.org/2000/svg"
 width="700.000000pt" height="700.000000pt" viewBox="0 0 700.000000 700.000000"
 preserveAspectRatio="xMidYMid meet">
<metadata>
Created by potrace 1.11, written by Peter Selinger 2001-2013
</metadata>
<g transform="translate(0.000000,700.000000) scale(0.100000,-0.100000)"
fill="#000000" stroke="none">
<path d="M3188 6105 c-320 -40 -655 -146 -928 -291 -111 -60 -313 -195 -419
-280 -119 -96 -283 -261 -381 -385 -298 -373 -476 -776 -557 -1264 -26 -158
-26 -612 0 -770 97 -580 334 -1053 730 -1454 204 -206 474 -402 699 -506 l49
-23 212 124 c123 72 218 122 227 118 8 -3 67 -18 130 -34 132 -33 280 -56 428
-66 l102 -7 1 -56 c1 -31 5 -114 8 -186 l8 -130 1 186 2 187 103 6 c564 37
1048 246 1440 625 363 350 587 790 663 1296 24 162 24 457 0 615 -36 243 -98
444 -202 659 -35 74 -62 137 -58 140 3 3 74 45 157 92 83 47 153 92 155 100 4
11 1 10 -14 -2 -21 -18 -282 -165 -301 -171 -7 -2 -37 35 -68 81 l-55 84 0
298 0 297 -97 84 c-387 336 -802 531 -1318 619 -156 27 -554 35 -717 14z
m2171 -1443 c17 -27 31 -53 31 -59 0 -5 -16 -17 -35 -26 l-35 -17 0 75 c0 41
2 75 4 75 2 0 18 -22 35 -48z m124 -222 c62 -133 112 -274 147 -413 18 -71 30
-130 28 -133 -3 -2 -141 47 -309 110 -167 62 -368 137 -447 166 l-143 53 238
134 c131 74 276 157 323 183 l84 48 20 -31 c10 -18 37 -70 59 -117z m-779
-267 c-2 -10 -18 -97 -34 -193 -17 -96 -34 -185 -38 -197 -6 -18 -20 0 -84
112 -43 73 -79 138 -80 145 -2 11 210 146 234 149 3 1 4 -7 2 -16z m452 -132
c490 -183 456 -170 452 -179 -14 -34 -513 -892 -519 -892 -13 0 -429 731 -429
754 0 21 46 291 71 414 6 28 14 52 18 52 4 0 187 -67 407 -149z m-628 -173
l93 -162 -96 -540 c-53 -298 -104 -584 -113 -636 l-17 -95 -448 -3 -447 -2 2
537 3 538 455 262 c250 144 460 262 465 262 6 0 52 -72 103 -161z m1151 -111
c15 -121 16 -392 1 -512 -18 -145 -56 -318 -101 -448 -38 -113 -164 -395 -173
-386 -8 9 -296 511 -296 517 0 18 546 948 551 938 4 -6 12 -55 18 -109z m-814
-470 l207 -359 -143 -249 -143 -249 -178 0 c-160 0 -178 2 -178 17 0 9 47 281
105 603 58 323 105 593 105 601 0 8 3 9 9 4 5 -6 102 -171 216 -368z m361
-625 l131 -227 -134 -3 c-73 -1 -193 -1 -267 0 l-134 3 131 228 c72 125 134
227 137 227 3 0 64 -103 136 -228z m-840 -279 c-3 -10 -42 -224 -87 -477 -65
-365 -79 -460 -69 -466 9 -5 -17 -17 -71 -34 -190 -58 -346 -85 -521 -93
l-138 -6 0 547 0 546 446 0 c419 0 445 -1 440 -17z m374 10 c0 -11 -483 -843
-487 -839 -3 3 127 755 142 824 5 22 7 22 175 22 94 0 170 -3 170 -7z m619
-30 c-199 -332 -508 -622 -861 -808 -97 -50 -257 -119 -263 -113 -2 2 120 218
272 481 l275 477 300 0 300 0 -23 -37z m-1899 -823 l0 -230 -68 0 c-162 0
-570 76 -544 102 8 8 603 358 610 358 1 0 2 -103 2 -230z"/>
</g>
</svg>
